<svg width="20" height="20" viewBox="0 0 20 20" fill="none" xmlns="http://www.w3.org/2000/svg">
<g clip-path="url(#clip0_6_669)">
<path d="M15.6308 13.3333C15.0569 13.332 14.4885 13.4443 13.9583 13.6639C13.4281 13.8834 12.9466 14.2058 12.5417 14.6125L10.0417 17.1125C9.65574 17.5007 9.19667 17.8084 8.69102 18.018C8.18537 18.2275 7.64318 18.3347 7.09582 18.3333H2.60165C2.41674 18.3336 2.23591 18.279 2.08205 18.1764C1.9282 18.0738 1.80825 17.9279 1.7374 17.7571C1.66654 17.5863 1.64797 17.3983 1.68404 17.217C1.7201 17.0356 1.80918 16.869 1.93999 16.7383L2.26165 16.4167C2.72594 16.6431 3.24953 16.7184 3.7588 16.6318C4.26807 16.5453 4.73741 16.3013 5.10082 15.9342L10.3725 10.6667C10.7242 10.7612 11.0853 10.8171 11.4492 10.8333C11.5208 10.8333 11.5933 10.8333 11.6667 10.8333C12.9935 10.8323 14.2658 10.3055 15.205 9.36833L16.0383 8.535C16.5276 8.0448 16.9099 7.45845 17.1611 6.81299C17.4122 6.16752 17.5268 5.47699 17.4975 4.785C17.4697 4.08997 17.2958 3.40858 16.9873 2.78517C16.6788 2.16176 16.2424 1.6103 15.7067 1.16667C14.7057 0.373891 13.4459 -0.0187146 12.1718 0.0650556C10.8977 0.148826 9.70018 0.702996 8.81166 1.62L8.28415 2.14833C7.64662 2.78358 7.18222 3.57137 6.93513 4.43677C6.68804 5.30218 6.66648 6.21641 6.87249 7.0925L1.56582 12.3992C1.20323 12.7642 0.962397 13.2324 0.876316 13.7396C0.790235 14.2469 0.863122 14.7683 1.08499 15.2325L0.761655 15.5558C0.396397 15.9194 0.147382 16.3833 0.0462135 16.8886C-0.0549555 17.3939 -0.00371787 17.9179 0.193424 18.3941C0.390566 18.8702 0.724723 19.2771 1.15349 19.563C1.58226 19.8489 2.0863 20.001 2.60165 20H7.09582C7.86214 20.0021 8.62125 19.8521 9.32918 19.5587C10.0371 19.2653 10.6798 18.8344 11.22 18.2908L13.72 15.7908C14.0979 15.4129 14.5795 15.1556 15.1037 15.0513C15.6279 14.9471 16.1712 15.0006 16.665 15.2051C17.1588 15.4096 17.5808 15.756 17.8778 16.2004C18.1747 16.6447 18.3333 17.1672 18.3333 17.7017V20H20V17.7017C19.9984 16.5434 19.5376 15.4331 18.7185 14.6142C17.8995 13.7953 16.789 13.3347 15.6308 13.3333ZM9.46416 3.32333L9.99165 2.795C10.6761 2.10722 11.6047 1.71782 12.575 1.71167C13.3262 1.70434 14.0557 1.96326 14.6342 2.4425C14.992 2.73804 15.2838 3.10556 15.4904 3.52119C15.697 3.93682 15.8138 4.39127 15.8333 4.855C15.8526 5.31627 15.7761 5.77652 15.6087 6.20678C15.4414 6.63704 15.1867 7.02799 14.8608 7.355L14.0275 8.18833C13.7001 8.51576 13.308 8.77137 12.8764 8.93889C12.4447 9.10641 11.9829 9.18216 11.5203 9.16131C11.0577 9.14045 10.6046 9.02345 10.1897 8.81777C9.77488 8.61208 9.40744 8.32222 9.11082 7.96667C8.58418 7.2865 8.32861 6.43513 8.39357 5.57736C8.45853 4.71959 8.83941 3.91643 9.46249 3.32333H9.46416ZM2.74415 13.5775L7.60749 8.71333C7.68332 8.82167 7.74415 8.93833 7.82999 9.04083C8.1066 9.36759 8.42326 9.65821 8.77249 9.90583L3.92249 14.7558C3.76404 14.9079 3.55294 14.9928 3.33332 14.9928C3.11371 14.9928 2.9026 14.9079 2.74415 14.7558C2.58793 14.5996 2.50017 14.3876 2.50017 14.1667C2.50017 13.9457 2.58793 13.7338 2.74415 13.5775Z" fill="white"/>
</g>
<defs>
<clipPath id="clip0_6_669">
<rect width="20" height="20" fill="white"/>
</clipPath>
</defs>
</svg>
