<svg width="20" height="20" viewBox="0 0 20 20" fill="none" xmlns="http://www.w3.org/2000/svg">
<g clip-path="url(#clip0_6_677)">
<path d="M18.3368 3.74832C18.3376 3.02749 17.8993 2.40666 17.2201 2.16666L11.8326 0.265824C10.6759 -0.143342 9.40261 -0.144176 8.24677 0.260824L2.79427 2.16916C2.11261 2.40749 1.67261 3.02749 1.67261 3.74916C1.67261 4.47166 2.11344 5.09166 2.79511 5.32916L5.00011 6.09832V7.49999C5.00011 10.2575 7.24261 12.5 10.0001 12.5C12.7576 12.5 15.0001 10.2575 15.0001 7.49999V6.09832L16.6668 5.51666V9.16582C16.6668 9.62582 17.0401 9.99916 17.5001 9.99916C17.9601 9.99916 18.3334 9.62582 18.3334 9.16582V3.76832C18.3334 3.76082 18.3368 3.75582 18.3368 3.74832ZM13.3334 7.49999C13.3334 9.33832 11.8384 10.8333 10.0001 10.8333C8.16177 10.8333 6.66677 9.33832 6.66677 7.49999V6.67999L8.21761 7.22082C8.79177 7.42082 9.39594 7.52166 9.99927 7.52166C10.6026 7.52166 11.2059 7.42082 11.7801 7.22082L13.3334 6.67916V7.49916V7.49999ZM11.2318 5.64749C10.4376 5.92499 9.56177 5.92499 8.76761 5.64749L3.34511 3.74166L8.79844 1.83332C9.19677 1.69416 9.61427 1.62416 10.0334 1.62416C10.4551 1.62416 10.8768 1.69499 11.2784 1.83666L16.6659 3.75166L11.2318 5.64749ZM16.6301 18.9192C16.7668 19.3583 16.5209 19.8258 16.0818 19.9625C15.9993 19.9883 15.9159 20 15.8343 20C15.4793 20 15.1501 19.7708 15.0384 19.4133C14.3826 17.305 12.3118 15.8325 10.0009 15.8325C7.69011 15.8325 5.61927 17.305 4.96344 19.4133C4.82677 19.8533 4.35677 20.0975 3.92011 19.9617C3.48094 19.825 3.23511 19.3575 3.37177 18.9183C4.24177 16.12 6.96761 14.1658 10.0009 14.1658C13.0343 14.1658 15.7601 16.1208 16.6301 18.9192Z" fill="white"/>
</g>
<defs>
<clipPath id="clip0_6_677">
<rect width="20" height="20" fill="white"/>
</clipPath>
</defs>
</svg>
