<svg width="24" height="24" viewBox="0 0 24 24" fill="none" xmlns="http://www.w3.org/2000/svg">
<path d="M17.6319 15.3153C17.0582 15.3139 16.4898 15.4266 15.9597 15.6467C15.4296 15.8669 14.9483 16.1902 14.5434 16.5979L12.044 19.1047C11.6581 19.4939 11.1992 19.8025 10.6936 20.0126C10.1881 20.2227 9.64602 20.3302 9.09878 20.3288H4.6056C4.42073 20.3291 4.23993 20.2743 4.08611 20.1715C3.93229 20.0686 3.81237 19.9223 3.74153 19.751C3.67069 19.5798 3.65213 19.3913 3.68818 19.2094C3.72424 19.0276 3.8133 18.8605 3.94408 18.7295L4.26567 18.407C4.72986 18.634 5.25334 18.7095 5.76249 18.6227C6.27165 18.5359 6.74089 18.2913 7.10422 17.9232L12.3747 12.6414C12.7264 12.7362 13.0874 12.7922 13.4512 12.8085C13.5228 12.8085 13.5953 12.8085 13.6686 12.8085C14.9951 12.8075 16.2672 12.2793 17.2062 11.3396L18.0393 10.504C18.5285 10.0125 18.9107 9.42452 19.1618 8.77731C19.4129 8.1301 19.5275 7.43769 19.4982 6.74384C19.4704 6.04693 19.2966 5.3637 18.9881 4.7386C18.6796 4.11351 18.2434 3.56055 17.7077 3.11572C16.707 2.3208 15.4475 1.92713 14.1737 2.01113C12.8998 2.09513 11.7026 2.6508 10.8142 3.57028L10.2869 4.10004C9.64947 4.737 9.18517 5.52692 8.93813 6.39467C8.69109 7.26241 8.66953 8.17912 8.8755 9.05758L3.56999 14.3786C3.20749 14.7446 2.9667 15.2141 2.88064 15.7227C2.79458 16.2313 2.86745 16.7541 3.08927 17.2196L2.766 17.5438C2.40083 17.9083 2.15187 18.3735 2.05072 18.8802C1.94957 19.3869 2.0008 19.9123 2.1979 20.3897C2.395 20.8672 2.72908 21.2751 3.15775 21.5618C3.58643 21.8485 4.09036 22.001 4.6056 22H9.09878C9.86493 22.0021 10.6239 21.8517 11.3316 21.5575C12.0394 21.2633 12.682 20.8312 13.222 20.2862L15.7215 17.7794C16.0994 17.4005 16.5808 17.1425 17.1049 17.0379C17.629 16.9334 18.1722 16.9871 18.6659 17.1921C19.1595 17.3972 19.5815 17.7445 19.8784 18.1901C20.1753 18.6357 20.3338 19.1595 20.3338 19.6954V22H22.0001V19.6954C21.9986 18.5341 21.5378 17.4207 20.7189 16.5996C19.9001 15.7785 18.7899 15.3166 17.6319 15.3153ZM11.4666 5.27822L11.994 4.74846C12.6783 4.05881 13.6067 3.66837 14.5767 3.66219C15.3278 3.65485 16.0571 3.91447 16.6355 4.395C16.9933 4.69134 17.2849 5.05986 17.4915 5.47661C17.698 5.89337 17.8149 6.34904 17.8344 6.81403C17.8536 7.27654 17.7772 7.73804 17.6098 8.16947C17.4425 8.60089 17.1879 8.99289 16.8621 9.32079L16.0289 10.1564C15.7016 10.4847 15.3096 10.741 14.8781 10.909C14.4465 11.0769 13.9848 11.1529 13.5223 11.132C13.0598 11.1111 12.6068 10.9938 12.192 10.7875C11.7773 10.5813 11.4099 10.2906 11.1133 9.93411C10.5868 9.2521 10.3313 8.39843 10.3962 7.53834C10.4612 6.67826 10.842 5.87292 11.4649 5.27822H11.4666ZM4.74807 15.5601L9.61034 10.6828C9.68615 10.7914 9.74697 10.9084 9.83279 11.0112C10.1093 11.3388 10.4259 11.6302 10.7751 11.8785L5.92614 16.7416C5.76774 16.8941 5.55667 16.9793 5.33711 16.9793C5.11754 16.9793 4.90648 16.8941 4.74807 16.7416C4.59188 16.5849 4.50413 16.3724 4.50413 16.1509C4.50413 15.9293 4.59188 15.7168 4.74807 15.5601Z" fill="black"/>
</svg>
