<svg width="24" height="24" viewBox="0 0 24 24" fill="none" xmlns="http://www.w3.org/2000/svg">
    <g clip-path="url(#clip0_173_1156)">
        <mask id="mask0_173_1156" style="mask-type:luminance" maskUnits="userSpaceOnUse" x="0" y="0" width="24" height="24">
            <path d="M24 0H0V24H24V0Z" fill="white"/>
        </mask>
        <g mask="url(#mask0_173_1156)">
            <path d="M19 4H17.9C17.668 2.87141 17.0538 1.85735 16.1612 1.12872C15.2687 0.40009 14.1522 0.00145452 13 0H11C9.8478 0.00145452 8.73132 0.40009 7.83875 1.12872C6.94618 1.85735 6.3321 2.87141 6.1 4H5C3.6744 4.00159 2.40355 4.52888 1.46622 5.46622C0.528882 6.40356 0.00158785 7.67441 0 9V19C0.00158785 20.3256 0.528882 21.5964 1.46622 22.5338C2.40355 23.4712 3.6744 23.9984 5 24H19C20.3256 23.9984 21.5964 23.4712 22.5338 22.5338C23.4712 21.5964 23.9984 20.3256 24 19V9C23.9984 7.67441 23.4712 6.40356 22.5338 5.46622C21.5964 4.52888 20.3256 4.00159 19 4ZM11 2H13C13.6182 2.00256 14.2206 2.19608 14.7247 2.55409C15.2287 2.91209 15.61 3.4171 15.816 4H8.184C8.39009 3.4171 8.77123 2.91209 9.2753 2.55409C9.77938 2.19608 10.3817 2.00256 11 2ZM5 6H19C19.7957 6 20.5588 6.31607 21.1213 6.87868C21.6839 7.44128 22 8.20435 22 9V12H2V9C2 8.20435 2.31607 7.44128 2.87868 6.87868C3.44129 6.31607 4.20436 6 5 6ZM19 22H5C4.20436 22 3.44129 21.6839 2.87868 21.1213C2.31607 20.5588 2 19.7957 2 19V14H11V15C11 15.2652 11.1054 15.5196 11.2929 15.7072C11.4804 15.8946 11.7348 16 12 16C12.2652 16 12.5196 15.8946 12.7072 15.7072C12.8946 15.5196 13 15.2652 13 15V14H22V19C22 19.7957 21.6839 20.5588 21.1213 21.1213C20.5588 21.6839 19.7957 22 19 22Z" fill="black"/>
        </g>
    </g>
    <defs>
        <clipPath id="clip0_173_1156">
            <rect width="24" height="24" fill="white"/>
        </clipPath>
    </defs>
</svg>